<svg width="12" height="14" viewBox="0 0 12 14" fill="none" xmlns="http://www.w3.org/2000/svg">
<path d="M12 0.333344V13.6667H10.6667V9.00001H8V4.33334C8 3.27248 8.42143 2.25506 9.17157 1.50492C9.92172 0.754771 10.9391 0.333344 12 0.333344ZM10.6667 2.02001C10.1133 2.33334 9.33333 3.11334 9.33333 4.33334V7.66668H10.6667V2.02001ZM4 8.26668V13.6667H2.66667V8.26668C1.91387 8.11276 1.23733 7.70359 0.75143 7.10837C0.265532 6.51314 9.40437e-05 5.76838 0 5.00001V1.00001H1.33333V5.66668H2.66667V1.00001H4V5.66668H5.33333V1.00001H6.66667V5.00001C6.66657 5.76838 6.40114 6.51314 5.91524 7.10837C5.42934 7.70359 4.75279 8.11276 4 8.26668Z" fill="#6A7D8B"/>
</svg>
