<svg width="16" height="16" viewBox="0 0 16 16" fill="none" xmlns="http://www.w3.org/2000/svg">
<g clip-path="url(#clip0_1_663)">
<path d="M8.00071 3.01932C9.56671 1.61332 11.9867 1.65999 13.4954 3.17132C15.0034 4.68332 15.0554 7.09132 13.6527 8.66199L7.99938 14.3233L2.34738 8.66199C0.944711 7.09132 0.997378 4.67932 2.50471 3.17132C4.01471 1.66199 6.43005 1.61132 8.00071 3.01932ZM12.5514 4.11332C11.5514 3.11199 9.93804 3.07132 8.89138 4.01132L8.00138 4.80999L7.11071 4.01199C6.06071 3.07065 4.45071 3.11199 3.44804 4.11465C2.45471 5.10799 2.40471 6.69799 3.32004 7.74865L8.00004 12.436L12.68 7.74932C13.596 6.69799 13.546 5.10999 12.5514 4.11332Z" fill="#6A7D8B"/>
</g>
<defs>
<clipPath id="clip0_1_663">
<rect width="16" height="16" fill="white"/>
</clipPath>
</defs>
</svg>
