<svg width="16" height="16" viewBox="0 0 16 16" fill="none" xmlns="http://www.w3.org/2000/svg">
<g clip-path="url(#clip0_1_648)">
<path d="M2.66663 12H3.99996V13.3333H12V2.66666H3.99996V3.99999H2.66663V1.99999C2.66663 1.82318 2.73686 1.65361 2.86189 1.52859C2.98691 1.40357 3.15648 1.33333 3.33329 1.33333H12.6666C12.8434 1.33333 13.013 1.40357 13.138 1.52859C13.2631 1.65361 13.3333 1.82318 13.3333 1.99999V14C13.3333 14.1768 13.2631 14.3464 13.138 14.4714C13.013 14.5964 12.8434 14.6667 12.6666 14.6667H3.33329C3.15648 14.6667 2.98691 14.5964 2.86189 14.4714C2.73686 14.3464 2.66663 14.1768 2.66663 14V12ZM3.99996 7.33333H8.66663V8.66666H3.99996V10.6667L0.666626 8L3.99996 5.33333V7.33333Z" fill="#6A7D8B"/>
</g>
<defs>
<clipPath id="clip0_1_648">
<rect width="16" height="16" fill="white"/>
</clipPath>
</defs>
</svg>
