<svg width="16" height="16" viewBox="0 0 16 16" fill="none" xmlns="http://www.w3.org/2000/svg">
<g clip-path="url(#clip0_1_658)">
<path d="M13.3333 14.6667H2.66667C2.48986 14.6667 2.32029 14.5964 2.19526 14.4714C2.07024 14.3464 2 14.1768 2 14V1.99999C2 1.82318 2.07024 1.65361 2.19526 1.52859C2.32029 1.40357 2.48986 1.33333 2.66667 1.33333H13.3333C13.5101 1.33333 13.6797 1.40357 13.8047 1.52859C13.9298 1.65361 14 1.82318 14 1.99999V14C14 14.1768 13.9298 14.3464 13.8047 14.4714C13.6797 14.5964 13.5101 14.6667 13.3333 14.6667ZM12.6667 13.3333V2.66666H3.33333V13.3333H12.6667ZM5.33333 4.66666H10.6667V6H5.33333V4.66666ZM5.33333 7.33333H10.6667V8.66666H5.33333V7.33333ZM5.33333 10H10.6667V11.3333H5.33333V10Z" fill="#6A7D8B"/>
</g>
<defs>
<clipPath id="clip0_1_658">
<rect width="16" height="16" fill="white"/>
</clipPath>
</defs>
</svg>
