<svg width="16" height="16" viewBox="0 0 16 16" fill="none" xmlns="http://www.w3.org/2000/svg">
<g clip-path="url(#clip0_1_668)">
<path d="M4.33333 1.33334H11.6667C11.7702 1.33334 11.8722 1.35744 11.9648 1.40373C12.0574 1.45001 12.1379 1.51721 12.2 1.60001L14 4.00001V14C14 14.1768 13.9298 14.3464 13.8047 14.4714C13.6797 14.5964 13.5101 14.6667 13.3333 14.6667H2.66667C2.48986 14.6667 2.32029 14.5964 2.19526 14.4714C2.07024 14.3464 2 14.1768 2 14V4.00001L3.8 1.60001C3.8621 1.51721 3.94262 1.45001 4.03519 1.40373C4.12776 1.35744 4.22984 1.33334 4.33333 1.33334ZM12.6667 5.33334H3.33333V13.3333H12.6667V5.33334ZM12.3333 4.00001L11.3333 2.66668H4.66667L3.66667 4.00001H12.3333ZM6 6.66668V8.00001C6 8.53044 6.21071 9.03915 6.58579 9.41422C6.96086 9.7893 7.46957 10 8 10C8.53043 10 9.03914 9.7893 9.41421 9.41422C9.78929 9.03915 10 8.53044 10 8.00001V6.66668H11.3333V8.00001C11.3333 8.88407 10.9821 9.73191 10.357 10.357C9.7319 10.9822 8.88406 11.3333 8 11.3333C7.11595 11.3333 6.2681 10.9822 5.64298 10.357C5.01786 9.73191 4.66667 8.88407 4.66667 8.00001V6.66668H6Z" fill="#6A7D8B"/>
</g>
<defs>
<clipPath id="clip0_1_668">
<rect width="16" height="16" fill="white"/>
</clipPath>
</defs>
</svg>
