<?xml version="1.0" encoding="iso-8859-1"?>
<!-- Generator: Adobe Illustrator 16.0.0, SVG Export Plug-In . SVG Version: 6.00 Build 0)  -->
<!DOCTYPE svg PUBLIC "-//W3C//DTD SVG 1.1//EN" "http://www.w3.org/Graphics/SVG/1.1/DTD/svg11.dtd">
<svg version="1.1" id="Capa_1" xmlns="http://www.w3.org/2000/svg" xmlns:xlink="http://www.w3.org/1999/xlink" x="0px" y="0px"
	 width="25px" height="25px" viewBox="0 0 792.001 792.001" style="enable-background:new 0 0 792.001 792.001;"
	 xml:space="preserve">
<g>
	<g>
		<g>
			<path d="M505.609,698.208c0.824-6.755,7.013-11.602,13.793-10.776c6.78,0.824,11.602,7.013,10.776,13.793l-9.978,79.923
				c-0.748,6.265-6.136,10.854-12.272,10.854l0,0H252.154c-6.522,0-11.885-5.079-12.349-11.473l-57.879-462.955
				c-0.825-6.754,3.996-12.968,10.776-13.793c6.781-0.825,12.968,3.996,13.793,10.777l56.59,452.693h233.914L505.609,698.208
				L505.609,698.208z M553.588,314.583l-5.98,47.953l-11.988,95.906l-11.988,95.905l-11.987,95.906
				c-0.825,6.78,3.995,12.968,10.775,13.793c6.755,0.825,12.968-3.996,13.793-10.775l11.988-95.906l11.988-95.906l11.987-95.907
				l5.981-47.953c0.825-6.754-3.996-12.968-10.776-13.793C560.601,302.981,554.387,307.802,553.588,314.583z" fill="currentColor"/>
			<path d="M550.907,198.67c3.042,6.084,0.566,13.483-5.518,16.526c-6.085,3.042-13.483,0.567-16.525-5.518l-28.54-57.054H259.76
				l-28.54,57.08c-3.042,6.084-10.441,8.534-16.525,5.492s-8.56-10.441-5.518-16.526l31.428-62.855
				c1.805-4.641,6.291-7.94,11.55-7.94h255.75v0.052c4.512,0,8.869,2.5,11.009,6.806L550.907,198.67z" fill="currentColor"/>
			<path d="M488.078,93.612c-0.722,6.78-6.806,11.679-13.586,10.983c-6.781-0.722-11.705-6.807-10.983-13.587l8.663-79.922
				c0.67-6.316,6.06-11.06,12.271-11.06V0h151.311c6.832,0,12.375,5.543,12.375,12.375s-5.543,12.375-12.375,12.375H495.529
				L488.078,93.612z" fill="currentColor"/>
			<path d="M204.201,408.375c-6.832,0-12.375-5.543-12.375-12.375s5.543-12.375,12.375-12.375h351.656
				c6.832,0,12.375,5.543,12.375,12.375s-5.543,12.375-12.375,12.375H204.201z" fill="currentColor"/>
			<path d="M236.169,664.125c-6.832,0-12.375-5.543-12.375-12.375s5.543-12.375,12.375-12.375h63.938
				c6.832,0,12.375,5.543,12.375,12.375s-5.569,12.375-12.375,12.375H236.169L236.169,664.125z M348.833,664.125
				c-6.832,0-12.375-5.543-12.375-12.375s5.543-12.375,12.375-12.375h175.055c6.832,0,12.375,5.543,12.375,12.375
				s-5.543,12.375-12.375,12.375H348.833z" fill="currentColor"/>
			<path d="M263.858,461.459c-0.825-6.781,3.996-12.969,10.777-13.793c6.754-0.825,12.968,3.996,13.793,10.776l11.988,95.905
				l11.988,95.906c0.825,6.78-3.996,12.968-10.777,13.793c-6.754,0.825-12.968-3.996-13.793-10.775l-12.014-95.906L263.858,461.459z
				" fill="currentColor"/>
			<path d="M475.935,191.813c6.832,0,12.375,5.543,12.375,12.375s-5.567,12.375-12.375,12.375H188.217
				c-5.388,0-10.287,2.191-13.819,5.698l-0.077,0.051c-3.506,3.558-5.698,8.457-5.698,13.845c0,5.388,2.191,10.287,5.698,13.819
				l0.051,0.051c3.558,3.532,8.457,5.724,13.845,5.724h383.625c5.39,0,10.287-2.191,13.818-5.698l0.052-0.051
				c3.507-3.532,5.698-8.457,5.698-13.819c0-5.388-2.191-10.261-5.698-13.819l-0.052-0.052c-3.531-3.558-8.43-5.749-13.818-5.749
				h-31.969c-6.832,0-12.375-5.543-12.375-12.375s5.543-12.375,12.375-12.375h31.969c12.169,0,23.229,5.001,31.272,13.02
				l0.052,0.052c8.018,8.043,13.02,19.104,13.02,31.272c0,12.143-5.002,23.229-13.02,31.272l-0.052,0.052
				c-8.044,8.018-19.104,13.02-31.272,13.02H188.217c-12.143,0-23.229-5.001-31.272-13.02l-0.052-0.052
				c-8.019-8.044-13.02-19.13-13.02-31.273c0-12.169,5.001-23.229,13.02-31.272l0.052-0.052c8.043-8.018,19.129-13.02,31.272-13.02
				L475.935,191.813L475.935,191.813z" fill="currentColor"/>
		</g>
	</g>
</g>
<g>
</g>
<g>
</g>
<g>
</g>
<g>
</g>
<g>
</g>
<g>
</g>
<g>
</g>
<g>
</g>
<g>
</g>
<g>
</g>
<g>
</g>
<g>
</g>
<g>
</g>
<g>
</g>
<g>
</g>
</svg>
