<svg width="24" height="24" viewBox="0 0 24 24" fill="none" xmlns="http://www.w3.org/2000/svg">
<g clip-path="url(#clip0_1_933)">
<path d="M17.882 19.2969C16.1232 20.4125 14.0827 21.0033 12 20.9999C6.608 20.9999 2.122 17.1199 1.181 11.9999C1.61103 9.67066 2.78263 7.54284 4.521 5.93394L1.392 2.80794L2.807 1.39294L22.606 21.1929L21.191 22.6069L17.881 19.2969H17.882ZM5.935 7.34994C4.576 8.58553 3.62932 10.2087 3.223 11.9999C3.53529 13.3664 4.16226 14.6411 5.054 15.7225C5.94574 16.804 7.07763 17.6623 8.35955 18.2293C9.64148 18.7962 11.038 19.056 12.4381 18.9881C13.8381 18.9201 15.203 18.5263 16.424 17.8379L14.396 15.8099C13.5327 16.3538 12.5102 16.588 11.4962 16.4744C10.4823 16.3607 9.53704 15.9058 8.81557 15.1844C8.0941 14.4629 7.63923 13.5177 7.52556 12.5037C7.4119 11.4897 7.64618 10.4673 8.19 9.60394L5.935 7.34994ZM12.914 14.3279L9.672 11.0859C9.49406 11.5389 9.45219 12.0339 9.55151 12.5103C9.65082 12.9867 9.88702 13.4237 10.2311 13.7678C10.5752 14.1119 11.0123 14.3481 11.4887 14.4474C11.965 14.5468 12.4601 14.5049 12.913 14.3269L12.914 14.3279ZM20.807 16.5919L19.376 15.1619C20.0445 14.2092 20.5204 13.1351 20.777 11.9999C20.5052 10.8097 19.9943 9.68709 19.2751 8.70044C18.556 7.71379 17.6438 6.88367 16.5939 6.26055C15.544 5.63743 14.3783 5.23431 13.1677 5.07571C11.9572 4.9171 10.727 5.00632 9.552 5.33794L7.974 3.75994C9.221 3.26994 10.58 2.99994 12 2.99994C17.392 2.99994 21.878 6.87994 22.819 11.9999C22.5126 13.6656 21.8239 15.2375 20.807 16.5919ZM11.723 7.50794C12.3595 7.46861 12.9971 7.56501 13.5935 7.79076C14.19 8.01651 14.7316 8.36646 15.1825 8.81739C15.6335 9.26833 15.9834 9.80997 16.2092 10.4064C16.4349 11.0028 16.5313 11.6404 16.492 12.2769L11.722 7.50794H11.723Z" fill="currentColor" fill-opacity="0.4"/>
</g>
<defs>
<clipPath id="clip0_1_933">
<rect width="24" height="24" fill="white"/>
</clipPath>
</defs>
</svg>
